# xmcd
#
# Track frame offsets: 
#        150
#        15360
#        34040
#        41575
#        82200
#        113163
#        130485
#
# Disc length: 2377 seconds
#
# Revision: 0
# Processed by: cddbd v1.5.2PL0 Copyright (c) Steve Scherf et al.
# Submitted via: ExactAudioCopy v0.99pb5
#
DISCID=54094707
DTITLE=Led Zeppelin  - Lost Mixes EP Vol 11
DYEAR=1900
DGENRE=
TTITLE0=White Summer
TTITLE1=White Summer 2
TTITLE2=Black MountainSide
TTITLE3=Kashmir
TTITLE4=Achilles Last Stand
TTITLE5=Achilles Last Stand 2
TTITLE6=Stairway To Heaven
EXTD=
EXTT0=
EXTT1=
EXTT2=
EXTT3=
EXTT4=
EXTT5=
EXTT6=
PLAYORDER=
